<svg width="20" height="20" viewBox="0 0 20 20" fill="none" xmlns="http://www.w3.org/2000/svg">
<g id="Property 1=Edit, Property 2=Note_Edit">
<path id="Vector" d="M8.33317 3.33317H5.99984C5.06642 3.33317 4.59936 3.33317 4.24284 3.51483C3.92924 3.67462 3.67445 3.9294 3.51466 4.243C3.33301 4.59952 3.33301 5.06658 3.33301 6V14C3.33301 14.9334 3.33301 15.3999 3.51466 15.7564C3.67445 16.07 3.92924 16.3252 4.24284 16.485C4.59901 16.6665 5.0655 16.6665 5.9971 16.6665H14.0022C14.9338 16.6665 15.3997 16.6665 15.7558 16.485C16.0694 16.3252 16.3251 16.0698 16.4849 15.7562C16.6663 15.4 16.6663 14.934 16.6663 14.0024V11.6665M13.333 4.1665L8.33301 9.1665V11.6665H10.833L15.833 6.6665M13.333 4.1665L15.833 1.6665L18.333 4.1665L15.833 6.6665M13.333 4.1665L15.833 6.6665" stroke="white" stroke-width="1.5" stroke-linecap="round" stroke-linejoin="round"/>
</g>
</svg>
