<svg width="28" height="28" viewBox="0 0 28 28" fill="none" xmlns="http://www.w3.org/2000/svg">
<g id="Property 1=User, Property 2=Square">
<path id="Vector" d="M19.5556 24C19.5556 20.9318 17.0682 18.4444 14 18.4444C10.9318 18.4444 8.44444 20.9318 8.44444 24M19.5556 24H20.4479C21.69 24 22.3111 24 22.786 23.758C23.2041 23.545 23.545 23.2041 23.758 22.786C24 22.3111 24 21.69 24 20.4479V7.55212C24 6.30999 24 5.688 23.758 5.21311C23.545 4.79497 23.2041 4.45526 22.786 4.24221C22.3106 4 21.6892 4 20.4447 4H7.55577C6.31121 4 5.68847 4 5.21311 4.24221C4.79497 4.45526 4.45526 4.79497 4.24221 5.21311C4 5.68847 4 6.31121 4 7.55577V20.4447C4 21.6892 4 22.3106 4.24221 22.786C4.45526 23.2041 4.79497 23.545 5.21311 23.758C5.688 24 6.30999 24 7.55212 24H8.44444M19.5556 24H8.44444M14 15.1111C12.1591 15.1111 10.6667 13.6187 10.6667 11.7778C10.6667 9.93683 12.1591 8.44444 14 8.44444C15.841 8.44444 17.3333 9.93683 17.3333 11.7778C17.3333 13.6187 15.841 15.1111 14 15.1111Z" stroke="#181B21" stroke-width="1.5" stroke-linecap="round" stroke-linejoin="round"/>
</g>
</svg>
