<svg width="28" height="28" viewBox="0 0 28 28" fill="none" xmlns="http://www.w3.org/2000/svg">
<g id="Property 1=Interface, Property 2=Settings">
<g id="Vector">
<path d="M22.4355 11.0626L22.0875 10.8681C22.0334 10.8379 22.0069 10.8228 21.9807 10.8071C21.7212 10.6509 21.5025 10.4351 21.3428 10.177C21.3268 10.151 21.3116 10.1238 21.2807 10.0699C21.2498 10.0162 21.2341 9.98892 21.2197 9.96195C21.0765 9.69339 20.9991 9.39411 20.9944 9.08949C20.994 9.05886 20.9941 9.02757 20.9951 8.96537L21.0019 8.55939C21.0128 7.90974 21.0183 7.5839 20.9274 7.29148C20.8466 7.03173 20.7116 6.79249 20.5312 6.58946C20.3273 6.35997 20.0451 6.19624 19.4801 5.8692L19.0108 5.59755C18.4474 5.27142 18.1656 5.1083 17.8665 5.04611C17.6019 4.9911 17.3288 4.99365 17.0651 5.0531C16.7675 5.12021 16.4892 5.28758 15.933 5.62213L15.9299 5.62365L15.5936 5.8259C15.5404 5.85788 15.5135 5.874 15.4869 5.88888C15.2224 6.03658 14.9272 6.11826 14.6247 6.12801C14.5942 6.12899 14.5632 6.12899 14.5012 6.12899C14.4396 6.12899 14.4073 6.12899 14.3769 6.12801C14.0738 6.11821 13.7779 6.0361 13.513 5.88779C13.4863 5.87284 13.4599 5.85659 13.4067 5.82446L13.0682 5.62039C12.5082 5.28267 12.2278 5.11355 11.9285 5.04611C11.6638 4.98644 11.3898 4.98479 11.1242 5.04052C10.8243 5.10344 10.5424 5.26777 9.97868 5.59643L9.97617 5.59755L9.51271 5.86774L9.50758 5.87089C8.94892 6.1966 8.66891 6.35984 8.46675 6.5884C8.28736 6.79122 8.15327 7.03009 8.07301 7.28914C7.98229 7.58197 7.98713 7.9085 7.99806 8.56122L8.00485 8.96662C8.00588 9.02801 8.00766 9.05852 8.00722 9.08871C8.00272 9.39395 7.92424 9.69385 7.78063 9.96289C7.76642 9.98949 7.75112 10.0161 7.72056 10.0692C7.68998 10.1224 7.67517 10.1489 7.65931 10.1745C7.49896 10.4341 7.27921 10.6511 7.01804 10.8075C6.99221 10.823 6.96498 10.8379 6.91149 10.8677L6.56787 11.0589C5.99616 11.3772 5.71037 11.5364 5.50241 11.7631C5.31845 11.9636 5.17947 12.2014 5.09464 12.4604C4.99875 12.7532 4.99883 13.0815 5.00031 13.7381L5.00153 14.2747C5.003 14.9269 5.00502 15.2528 5.10113 15.5436C5.18616 15.8009 5.32412 16.0373 5.50705 16.2366C5.71383 16.4618 5.99678 16.6201 6.56415 16.9372L6.90471 17.1275C6.96267 17.1599 6.99183 17.1759 7.01978 17.1928C7.27858 17.3493 7.49661 17.5657 7.65559 17.8238C7.67277 17.8516 7.68926 17.8806 7.72223 17.9384C7.75479 17.9956 7.77145 18.0241 7.78651 18.0528C7.92591 18.3179 8.00054 18.6124 8.00563 18.9122C8.00618 18.9446 8.00571 18.9773 8.0046 19.0432L7.99806 19.4322C7.98705 20.0872 7.98226 20.415 8.07351 20.7086C8.15424 20.9684 8.28917 21.2076 8.46953 21.4107C8.67341 21.6402 8.95605 21.8038 9.52107 22.1308L9.99027 22.4024C10.5537 22.7286 10.8353 22.8915 11.1344 22.9537C11.3991 23.0087 11.6723 23.0065 11.936 22.9471C12.234 22.8799 12.5132 22.7119 13.071 22.3764L13.4073 22.1742C13.4605 22.1422 13.4874 22.1261 13.5141 22.1113C13.7786 21.9636 14.0735 21.8815 14.3759 21.8717C14.4064 21.8707 14.4374 21.8707 14.4994 21.8707C14.5616 21.8707 14.5925 21.8707 14.6231 21.8717C14.9262 21.8815 15.2229 21.9639 15.4878 22.1122C15.5111 22.1252 15.5344 22.1393 15.5755 22.1641L15.9329 22.3797C16.493 22.7174 16.7729 22.886 17.0721 22.9535C17.3369 23.0131 17.6111 23.0156 17.8767 22.9599C18.1765 22.897 18.459 22.7323 19.0224 22.4038L19.4928 22.1296C20.0518 21.8036 20.3322 21.6402 20.5344 21.4116C20.7138 21.2088 20.848 20.97 20.9283 20.711C21.0183 20.4203 21.0129 20.0962 21.0021 19.4529L20.9951 19.0334C20.9941 18.972 20.994 18.9414 20.9944 18.9112C20.9989 18.606 21.0761 18.3059 21.2197 18.0369C21.2339 18.0103 21.2493 17.9835 21.2798 17.9305C21.3104 17.8773 21.3262 17.8508 21.342 17.8252C21.5024 17.5656 21.7224 17.3484 21.9835 17.192C22.0091 17.1767 22.0353 17.1621 22.0875 17.133L22.0893 17.1322L22.433 16.9409C23.0047 16.6227 23.291 16.4632 23.499 16.2366C23.6829 16.0361 23.8217 15.7986 23.9065 15.5396C24.0019 15.2485 24.0011 14.9221 23.9997 14.2732L23.9984 13.725C23.997 13.0729 23.9962 12.747 23.9 12.4562C23.815 12.199 23.6763 11.9625 23.4934 11.7632C23.2868 11.5382 23.0034 11.3799 22.4372 11.0634L22.4355 11.0626Z" stroke="#161616" stroke-width="1.5" stroke-linecap="round" stroke-linejoin="round"/>
<path d="M10.6988 14.0001C10.6988 16.109 12.4008 17.8186 14.5003 17.8186C16.5998 17.8186 18.3018 16.109 18.3018 14.0001C18.3018 11.8911 16.5998 10.1815 14.5003 10.1815C12.4008 10.1815 10.6988 11.8911 10.6988 14.0001Z" stroke="#161616" stroke-width="1.5" stroke-linecap="round" stroke-linejoin="round"/>
</g>
</g>
</svg>
