<svg width="20" height="20" viewBox="0 0 20 20" fill="none" xmlns="http://www.w3.org/2000/svg">
<g id="Property 1=Calendar, Property 2=Calendar_Check">
<path id="Vector" d="M3.3335 6.66666H16.6668M3.3335 6.66666V14.0002C3.3335 14.9336 3.3335 15.4 3.51515 15.7566C3.67494 16.0702 3.92972 16.3254 4.24333 16.4852C4.5995 16.6667 5.06599 16.6667 5.99759 16.6667H14.0027C14.9343 16.6667 15.4002 16.6667 15.7563 16.4852C16.0699 16.3254 16.3256 16.0702 16.4854 15.7566C16.6668 15.4004 16.6668 14.9346 16.6668 14.003V6.66666M3.3335 6.66666V6.00015C3.3335 5.06673 3.3335 4.59967 3.51515 4.24315C3.67494 3.92955 3.92972 3.67477 4.24333 3.51498C4.59985 3.33332 5.0669 3.33332 6.00033 3.33332H6.66683M16.6668 6.66666V5.99741C16.6668 5.06582 16.6668 4.59932 16.4854 4.24315C16.3256 3.92955 16.0699 3.67477 15.7563 3.51498C15.3998 3.33332 14.9337 3.33332 14.0003 3.33332H13.3335M6.66683 3.33332H13.3335M6.66683 3.33332V1.66666M13.3335 3.33332V1.66666M12.5002 9.99999L9.16683 13.3333L7.50016 11.6667" stroke="#3F454E" stroke-width="1.5" stroke-linecap="round" stroke-linejoin="round"/>
</g>
</svg>
